<svg xmlns="http://www.w3.org/2000/svg" xmlns:xlink="http://www.w3.org/1999/xlink" width="1080" zoomAndPan="magnify" viewBox="0 0 810 809.999993" height="1080" preserveAspectRatio="xMidYMid meet" version="1.0"><defs><clipPath id="id1"><path d="M 0 58 L 809 58 L 809 754.976562 L 0 754.976562 Z M 0 58 " clip-rule="nonzero"/></clipPath><clipPath id="id2"><path d="M 0 98 L 809 98 L 809 754.976562 L 0 754.976562 Z M 0 98 " clip-rule="nonzero"/></clipPath></defs><path fill="#ff914d" d="M 111.976562 271.53125 L 125.316406 271.53125 L 125.316406 283.402344 L 303.730469 283.402344 L 303.730469 80.558594 L 294.34375 80.558594 L 294.34375 70.007812 C 294.34375 69.011719 293.535156 68.203125 292.542969 68.203125 L 111.976562 68.203125 C 110.980469 68.203125 110.175781 69.011719 110.175781 70.007812 L 110.175781 269.730469 C 110.175781 270.726562 110.980469 271.53125 111.976562 271.53125 Z M 113.777344 71.808594 L 290.742188 71.808594 L 290.742188 80.558594 L 125.320312 80.558594 L 125.320312 267.929688 L 113.777344 267.929688 Z M 113.777344 71.808594 " fill-opacity="1" fill-rule="nonzero"/><path fill="#ff914d" d="M 232.425781 409.550781 C 234.003906 409.550781 235.277344 408.269531 235.277344 406.695312 L 235.277344 392.132812 L 249.835938 392.132812 C 251.414062 392.132812 252.691406 390.855469 252.691406 389.277344 C 252.691406 387.703125 251.410156 386.421875 249.835938 386.421875 L 235.277344 386.421875 L 235.277344 371.863281 C 235.277344 370.285156 234 369.007812 232.425781 369.007812 C 230.847656 369.007812 229.570312 370.285156 229.570312 371.863281 L 229.570312 386.421875 L 215.011719 386.421875 C 213.433594 386.421875 212.160156 387.703125 212.160156 389.277344 C 212.160156 390.855469 213.4375 392.132812 215.011719 392.132812 L 229.570312 392.132812 L 229.570312 406.695312 C 229.570312 408.273438 230.847656 409.550781 232.425781 409.550781 Z M 232.425781 409.550781 " fill-opacity="1" fill-rule="nonzero"/><g clip-path="url(#id1)"><path fill="#ff914d" d="M 808.289062 654.226562 C 803.089844 620.074219 770.722656 604.914062 780.878906 565.359375 C 785.273438 548.253906 798.105469 534.480469 803.839844 517.773438 C 808.167969 505.164062 808.144531 491.570312 805.242188 478.476562 C 803.628906 471.199219 801.125 464.074219 797.984375 457.363281 C 776.265625 410.945312 744.285156 391.644531 698.402344 373.617188 C 690.984375 370.699219 683.546875 368.867188 676.128906 367.921875 C 659.765625 341.316406 637.429688 318.679688 607.5 312.460938 C 607.742188 312.339844 607.933594 312.125 607.992188 311.839844 C 608.085938 311.351562 607.765625 310.878906 607.277344 310.785156 C 606.636719 310.660156 606.003906 310.609375 605.367188 310.5625 C 604.226562 300.585938 602.210938 281.484375 602 279.1875 C 601.363281 272.277344 601.023438 266.964844 601.386719 261.710938 C 602.574219 262.613281 603.8125 263.460938 605.167969 264.207031 C 631.050781 278.429688 659.105469 251.625 671.105469 231.253906 C 675.042969 224.574219 678.605469 217.652344 681.351562 210.398438 C 707.355469 141.703125 653.832031 66.988281 583.558594 58.96875 C 550.460938 55.191406 508.074219 63.691406 484.519531 88.671875 C 462.25 112.285156 448.824219 144.375 450.050781 177.023438 C 450.960938 201.175781 462.421875 213.960938 470.507812 221.277344 C 470.398438 223.679688 470.355469 226.082031 470.378906 228.476562 C 470.375 228.476562 470.367188 228.472656 470.363281 228.472656 C 469.867188 228.480469 469.46875 228.890625 469.480469 229.386719 C 469.585938 235.410156 470.15625 241.222656 471.171875 246.652344 C 473.722656 260.371094 479.316406 270.820312 487.804688 277.707031 C 496.035156 284.40625 507.902344 288.84375 520.355469 289.886719 C 520.378906 289.890625 520.402344 289.890625 520.429688 289.890625 C 520.894531 289.890625 521.289062 289.539062 521.328125 289.066406 C 521.328125 289.0625 521.324219 289.058594 521.324219 289.054688 C 523.847656 289.230469 526.339844 289.261719 528.753906 289.136719 C 527.671875 295.710938 526.914062 302.429688 526.410156 309.132812 C 526.105469 313.132812 525.886719 317.132812 525.761719 321.097656 C 525.722656 322.179688 525.523438 326.917969 525.363281 330.71875 C 510.191406 341.347656 494.863281 357.367188 480.445312 381.398438 C 472.25 395.0625 459.574219 407.707031 444.832031 419.117188 C 437.320312 411.855469 430.285156 404.019531 422.652344 396.871094 C 394.195312 370.21875 370.484375 372.941406 336.523438 387.113281 C 313.535156 396.710938 292.511719 410.5 269.71875 420.558594 C 246.925781 430.617188 221.125 436.863281 197.101562 430.265625 C 162.9375 420.882812 150.023438 365.503906 77.28125 384.753906 C 4.539062 404.003906 0.820312 545.679688 0.820312 613.066406 C 0.820312 615.121094 0.820312 625.65625 0.820312 640.121094 L 0.566406 640.121094 L 0.566406 665.558594 L 0.820312 665.558594 C 0.820312 706 0.820312 754.878906 0.820312 754.878906 C 1.019531 754.878906 808.621094 754.878906 808.632812 754.878906 C 808.824219 754.878906 809.515625 662.292969 808.289062 654.226562 Z M 808.289062 654.226562 " fill-opacity="1" fill-rule="nonzero"/></g><path fill="#ff914d" d="M 29.761719 368.03125 L 37.535156 368.03125 L 37.535156 375.808594 C 37.535156 376.652344 38.21875 377.335938 39.058594 377.335938 C 39.902344 377.335938 40.585938 376.652344 40.585938 375.808594 L 40.585938 368.03125 L 48.359375 368.03125 C 49.203125 368.03125 49.886719 367.347656 49.886719 366.507812 C 49.886719 365.664062 49.203125 364.980469 48.359375 364.980469 L 40.585938 364.980469 L 40.585938 357.203125 C 40.585938 356.359375 39.902344 355.679688 39.058594 355.679688 C 38.21875 355.679688 37.535156 356.359375 37.535156 357.203125 L 37.535156 364.980469 L 29.761719 364.980469 C 28.917969 364.980469 28.234375 365.664062 28.234375 366.507812 C 28.234375 367.347656 28.917969 368.03125 29.761719 368.03125 Z M 29.761719 368.03125 " fill-opacity="1" fill-rule="nonzero"/><path fill="#ff3800" d="M 606.933594 312.550781 C 607.132812 312.589844 607.324219 312.542969 607.5 312.457031 C 637.429688 318.679688 659.765625 341.316406 676.128906 367.917969 C 685.910156 383.820312 693.566406 401.125 699.429688 417.179688 C 709.082031 443.601562 713.28125 470.410156 719.398438 497.640625 C 727.765625 534.898438 741.125 568.519531 743.238281 608.03125 C 743.5 612.960938 743.546875 618.277344 740.777344 622.363281 C 739.804688 623.804688 738.550781 624.957031 737.144531 625.933594 C 734.367188 627.863281 730.964844 629.066406 727.699219 630.113281 C 657.816406 652.460938 584.117188 662.777344 510.789062 660.589844 C 503.746094 660.378906 496.714844 660.015625 489.683594 659.574219 C 486.117188 659.351562 482.550781 659.136719 478.988281 658.855469 C 475.730469 658.597656 477.21875 630.121094 477.269531 627.433594 C 477.574219 610.199219 480.164062 593.285156 482.390625 576.144531 C 483.101562 570.6875 483.882812 565.246094 484.730469 559.8125 C 485.242188 556.554688 485.144531 551.09375 486.957031 548.097656 C 514.679688 533.175781 541.511719 514.457031 561.226562 491.492188 C 625.140625 417.046875 624.636719 387.792969 624.585938 386.585938 C 624.566406 386.089844 624.210938 385.722656 623.652344 385.722656 C 623.15625 385.746094 622.769531 386.164062 622.785156 386.660156 C 622.796875 386.949219 623.125 416.628906 559.859375 490.320312 C 515.667969 541.792969 435.351562 571.863281 390.148438 585.484375 C 388.683594 571.6875 386.792969 557.871094 384.507812 544.117188 C 394.394531 538.003906 405.59375 533.996094 416.433594 530.125 C 422.023438 528.132812 427.800781 526.066406 433.355469 523.730469 C 462.132812 511.636719 487.660156 490.769531 505.246094 464.980469 C 517.507812 447.003906 526.113281 426.605469 534.433594 406.882812 C 538.289062 397.746094 542.277344 388.296875 546.574219 379.21875 C 554.75 361.9375 563.351562 348.070312 572.875 336.832031 C 573.703125 335.855469 574.582031 334.789062 575.511719 333.664062 C 583.207031 324.320312 594.835938 310.203125 606.933594 312.550781 Z M 461.820312 560.566406 C 466.28125 558.769531 470.585938 556.648438 474.816406 554.371094 C 470.476562 556.527344 466.136719 558.589844 461.820312 560.566406 Z M 358.796875 595.765625 C 362.515625 595.785156 372.078125 593.089844 383.949219 589.183594 C 371.234375 592.855469 362.179688 595 358.796875 595.765625 Z M 316.65625 483.65625 C 316.65625 483.65625 317.347656 485.554688 318.539062 488.839844 C 318.765625 488.953125 318.949219 489.148438 319.015625 489.417969 C 319.066406 489.613281 319.03125 489.808594 318.957031 489.984375 C 322.015625 498.417969 327.761719 514.25 333.886719 531.132812 C 334.226562 531.15625 334.539062 531.371094 334.667969 531.714844 L 357.71875 594.164062 C 360.695312 593.5 372.105469 590.863281 388.398438 586.007812 C 385.277344 556.472656 380.238281 526.847656 373.410156 497.945312 C 373.296875 497.460938 373.59375 496.976562 374.078125 496.859375 C 374.558594 496.734375 375.046875 497.046875 375.164062 497.527344 C 377.269531 506.445312 379.183594 515.4375 380.949219 524.46875 C 380.96875 524.464844 380.992188 524.457031 381.011719 524.449219 C 381.121094 524.421875 381.171875 524.410156 381.3125 524.335938 C 424.71875 501.527344 485.460938 464.253906 511.707031 404.195312 C 515.167969 396.28125 518.039062 387.9375 520.8125 379.867188 C 524.988281 367.730469 529.308594 355.175781 535.726562 343.789062 C 542.898438 331.066406 554.511719 318.152344 568.777344 312.582031 C 555.148438 314.992188 540.335938 320.222656 525.363281 330.714844 C 510.191406 341.339844 494.863281 357.359375 480.445312 381.394531 C 472.25 395.054688 459.574219 407.703125 444.832031 419.113281 C 411.78125 444.6875 368.320312 464.035156 341.449219 474.601562 C 326.480469 480.488281 316.65625 483.65625 316.65625 483.65625 Z M 587.148438 311.726562 C 565.335938 309.492188 547.101562 327.289062 537.292969 344.675781 C 530.953125 355.921875 526.664062 368.394531 522.515625 380.457031 C 519.730469 388.558594 516.847656 396.9375 513.359375 404.917969 C 486.882812 465.496094 425.796875 502.996094 382.152344 525.933594 C 381.824219 526.109375 381.609375 526.164062 381.453125 526.199219 C 381.390625 526.214844 381.34375 526.230469 381.292969 526.25 C 382.316406 531.558594 383.296875 536.875 384.199219 542.210938 C 394.085938 536.214844 405.128906 532.25 415.828125 528.429688 C 421.394531 526.441406 427.148438 524.382812 432.660156 522.070312 C 461.117188 510.105469 486.367188 489.472656 503.757812 463.964844 C 515.917969 446.136719 524.488281 425.824219 532.773438 406.183594 C 536.640625 397.027344 540.632812 387.5625 544.945312 378.445312 C 553.191406 361.019531 561.875 347.027344 571.5 335.664062 C 572.324219 334.691406 573.199219 333.632812 574.121094 332.515625 C 580.453125 324.828125 589.375 314.042969 599.367188 311.214844 C 596.589844 310.929688 593.765625 310.746094 590.867188 310.746094 C 589.960938 310.746094 589.046875 310.753906 588.121094 310.769531 C 588.121094 310.820312 588.140625 310.871094 588.132812 310.921875 C 588.082031 311.417969 587.636719 311.765625 587.148438 311.726562 Z M 154.558594 663.753906 L 375.667969 663.753906 L 375.667969 641.289062 L 213.679688 641.289062 C 212.910156 641.289062 212.261719 640.800781 212.003906 640.121094 L 0.566406 640.121094 L 0.566406 665.558594 L 152.757812 665.558594 C 152.757812 664.5625 153.566406 663.753906 154.558594 663.753906 Z M 154.558594 663.753906 " fill-opacity="1" fill-rule="nonzero"/><path fill="#000000" d="M 125.320312 267.929688 L 290.742188 267.929688 L 290.742188 80.558594 L 125.320312 80.558594 Z M 202.257812 98.507812 C 230.769531 98.507812 253.878906 121.628906 253.878906 150.144531 C 253.878906 178.664062 202.257812 241.226562 202.257812 241.226562 C 202.257812 241.226562 150.640625 178.664062 150.640625 150.144531 C 150.640625 121.628906 173.75 98.507812 202.257812 98.507812 Z M 294.34375 269.730469 L 294.34375 80.558594 L 303.734375 80.558594 L 303.734375 283.402344 L 125.320312 283.402344 L 125.320312 271.53125 L 292.542969 271.53125 C 293.539062 271.53125 294.34375 270.726562 294.34375 269.730469 Z M 474.394531 191.855469 C 471.984375 191.367188 469.257812 190.390625 466.246094 188.882812 C 465.324219 188.433594 464.414062 187.941406 463.503906 187.449219 L 462.746094 187.023438 C 456.441406 183.328125 451.265625 178.992188 451.210938 178.949219 C 450.996094 178.769531 450.878906 178.496094 450.894531 178.21875 C 450.90625 177.9375 451.050781 177.679688 451.28125 177.519531 C 451.46875 177.390625 455.960938 174.375 466.875 173.828125 C 468.023438 173.773438 469.25 173.738281 470.519531 173.738281 L 471.027344 173.738281 C 473.773438 173.984375 475.847656 174.453125 477.855469 175.3125 C 478.5625 172.058594 479.265625 168.804688 479.949219 165.550781 C 475.542969 165.550781 470.058594 166.167969 464.976562 168.832031 C 455.464844 173.820312 464.992188 161.027344 474.132812 159.089844 C 476.628906 158.5625 479.132812 158.238281 481.472656 158.042969 C 481.5 157.898438 481.53125 157.753906 481.558594 157.609375 C 474.246094 155.628906 466.277344 151.460938 466.15625 144.082031 C 466.226562 148.085938 477.511719 144.734375 479.3125 144.238281 C 486.402344 142.285156 491.164062 140.417969 496.078125 134.613281 C 501.78125 127.878906 508.214844 121.359375 516.398438 118.0625 C 525.128906 114.546875 534.980469 115.058594 544.203125 116.941406 C 550.652344 118.253906 557.222656 120.328125 562.636719 124.1875 C 566.539062 126.96875 569.511719 130.773438 573.09375 133.921875 C 575.933594 136.417969 579.066406 138.625 582.375 140.460938 C 583.808594 141.261719 584.726562 141.472656 585.207031 142.542969 C 590.050781 145.257812 594.15625 148.386719 597.597656 151.859375 C 598.972656 163.046875 596.105469 174.605469 592.890625 185.554688 C 590.355469 194.195312 586.824219 204.988281 585.832031 215.464844 C 585.769531 216.117188 585.71875 216.769531 585.675781 217.421875 C 585.535156 219.660156 585.511719 221.882812 585.660156 224.050781 C 586.148438 231.070312 588.339844 237.601562 593.433594 242.816406 C 595.914062 245.355469 598.800781 247.433594 601.933594 249.074219 C 602.351562 249.289062 602.789062 249.472656 603.210938 249.671875 C 603.292969 249.710938 603.371094 249.75 603.453125 249.785156 C 602.285156 254.117188 601.648438 257.90625 601.382812 261.710938 C 602.570312 262.609375 603.808594 263.460938 605.164062 264.203125 C 631.046875 278.429688 659.101562 251.625 671.101562 231.253906 C 675.039062 224.570312 678.601562 217.648438 681.347656 210.394531 C 707.351562 141.699219 653.828125 66.984375 583.554688 58.96875 C 550.457031 55.191406 508.070312 63.691406 484.515625 88.671875 C 462.246094 112.28125 448.820312 144.375 450.046875 177.023438 C 450.957031 201.175781 462.417969 213.957031 470.503906 221.277344 C 470.648438 218.191406 470.886719 215.105469 471.222656 212.023438 C 471.960938 205.257812 473.09375 198.542969 474.394531 191.855469 Z M 644.339844 206.730469 C 647.152344 217.746094 640.917969 229.117188 630.441406 232.082031 C 628.746094 232.566406 627.015625 232.800781 625.296875 232.800781 C 622.027344 232.800781 618.792969 231.9375 615.855469 230.25 C 611.09375 227.507812 607.703125 222.964844 606.296875 217.453125 C 603.484375 206.4375 609.71875 195.066406 620.195312 192.101562 C 625.125 190.703125 630.300781 191.355469 634.785156 193.933594 C 639.542969 196.675781 642.9375 201.21875 644.339844 206.730469 Z M 526.222656 107.863281 C 572.828125 95.890625 617.707031 140.902344 618.152344 141.359375 L 616.867188 142.621094 C 616.425781 142.171875 572.269531 97.882812 526.667969 109.609375 C 481.246094 121.28125 476.714844 143.652344 476.671875 143.878906 L 474.898438 143.566406 C 475.066406 142.601562 479.542969 119.859375 526.222656 107.863281 Z M 727.699219 630.109375 C 730.96875 629.066406 734.371094 627.863281 737.144531 625.929688 C 740.988281 645.875 745.628906 685.421875 729.71875 712.980469 L 492.871094 712.980469 C 495.945312 704.226562 505.417969 677.152344 510.789062 660.589844 C 584.117188 662.777344 657.820312 652.460938 727.699219 630.109375 Z M 211.878906 639.484375 C 211.878906 639.710938 211.929688 639.921875 212.003906 640.121094 L 85.058594 640.121094 L 85.058594 550.675781 C 86.054688 550.675781 86.859375 549.871094 86.859375 548.875 L 86.859375 464.515625 L 183.589844 464.515625 C 184.582031 464.515625 185.390625 463.710938 185.390625 462.714844 C 185.390625 462.429688 185.308594 462.167969 185.191406 461.929688 L 341.449219 461.929688 L 341.449219 474.601562 C 326.480469 480.488281 316.65625 483.65625 316.65625 483.65625 C 316.65625 483.65625 317.347656 485.554688 318.539062 488.839844 C 318.355469 488.746094 318.140625 488.707031 317.921875 488.761719 L 307.148438 491.457031 L 293.089844 487.128906 C 284.476562 478.273438 275.132812 475.53125 274.738281 475.414062 C 274.265625 475.273438 273.761719 475.554688 273.625 476.035156 C 273.609375 476.089844 273.617188 476.148438 273.613281 476.203125 C 258.183594 469.890625 236.882812 464.980469 238.496094 477.417969 C 238.96875 481.035156 243.609375 483.457031 247.636719 484.191406 C 251.660156 484.925781 255.933594 484.828125 259.566406 486.824219 C 265.542969 490.109375 259.492188 495.644531 251.351562 500.621094 L 119.4375 500.621094 L 119.4375 557.730469 L 256.898438 557.730469 C 252.320312 561.371094 247.347656 564.730469 242.816406 568.367188 C 240.730469 570.042969 238.652344 571.902344 237.933594 574.414062 C 237.21875 576.925781 238.339844 580.253906 241.132812 581.589844 C 244.382812 583.140625 247.824219 581.390625 250.472656 579.679688 C 258.6875 574.375 266.898438 569.066406 275.113281 563.761719 C 272.164062 568.289062 269.234375 572.875 267.046875 577.832031 C 265.632812 581.03125 262.414062 588.113281 265.398438 591.371094 C 266.128906 592.171875 267.242188 592.535156 268.324219 592.550781 C 271.089844 592.597656 273.820312 590.320312 276.015625 588.832031 C 276.351562 588.605469 276.683594 588.371094 277.007812 588.132812 C 285.019531 582.238281 289.582031 573.144531 296.433594 566.058594 C 297.160156 565.304688 297.925781 564.578125 298.703125 563.859375 C 298.855469 563.988281 299.039062 564.078125 299.253906 564.085938 C 299.261719 564.085938 299.269531 564.085938 299.28125 564.085938 C 299.765625 564.085938 300.167969 563.699219 300.183594 563.210938 C 300.191406 562.980469 300.183594 562.757812 300.191406 562.527344 C 302.109375 560.867188 304.15625 559.277344 306.269531 557.730469 L 313.652344 557.730469 L 313.652344 552.570312 C 318.769531 549.078125 323.898438 545.601562 328.316406 541.710938 C 328.140625 541.195312 327.96875 540.683594 327.792969 540.167969 L 335.554688 539.328125 L 341.445312 555.292969 L 341.445312 637.691406 L 213.675781 637.691406 C 212.683594 637.683594 211.878906 638.492188 211.878906 639.484375 Z M 308.222656 493.398438 L 307.542969 493.210938 L 312.0625 492.082031 C 310.023438 492.785156 308.597656 493.273438 308.222656 493.398438 Z M 263.035156 552.320312 L 248.070312 552.320312 C 255.390625 549.15625 262.710938 545.992188 270.03125 542.828125 C 268.289062 546.394531 265.855469 549.492188 263.035156 552.320312 Z M 124.84375 506.023438 L 241.457031 506.023438 C 236.277344 508.605469 231.796875 510.535156 230.480469 511.117188 C 226.859375 512.722656 222.003906 514.070312 221.738281 518.863281 C 221.585938 521.550781 223.804688 523.910156 226.335938 524.828125 C 228.867188 525.742188 231.640625 525.542969 234.324219 525.328125 C 240.273438 524.859375 246.171875 524.097656 252.113281 523.597656 C 254.699219 523.382812 257.433594 523.066406 260.027344 523.335938 C 260.515625 523.386719 263.453125 524.777344 262.246094 524.777344 C 254 533.183594 243.070312 540.132812 233.582031 547.515625 C 231.980469 548.761719 230.277344 550.355469 230.460938 552.320312 L 124.84375 552.320312 Z M 625.339844 193.183594 C 628.296875 193.183594 631.226562 193.964844 633.882812 195.496094 C 638.21875 197.992188 641.3125 202.140625 642.597656 207.175781 C 645.167969 217.25 639.492188 227.648438 629.953125 230.351562 C 625.496094 231.613281 620.808594 231.023438 616.753906 228.6875 C 612.421875 226.191406 609.324219 222.042969 608.042969 217.011719 C 605.472656 206.933594 611.144531 196.539062 620.6875 193.835938 C 622.222656 193.398438 623.78125 193.183594 625.339844 193.183594 Z M 625.339844 193.183594 " fill-opacity="1" fill-rule="nonzero"/><path fill="#231f20" d="M 510.789062 660.589844 C 503.75 660.378906 496.714844 660.015625 489.6875 659.574219 L 481.433594 712.980469 L 351.523438 712.980469 C 351.644531 712.738281 351.722656 712.476562 351.722656 712.1875 L 351.722656 667.359375 L 377.46875 667.359375 C 378.460938 667.359375 379.269531 666.554688 379.269531 665.558594 L 379.269531 639.488281 C 379.269531 638.492188 378.460938 637.6875 377.46875 637.6875 L 213.675781 637.6875 C 212.683594 637.6875 211.875 638.492188 211.875 639.488281 C 211.875 639.714844 211.929688 639.925781 212.003906 640.125 C 212.261719 640.804688 212.90625 641.289062 213.675781 641.289062 L 375.667969 641.289062 L 375.667969 663.757812 L 154.558594 663.757812 C 153.566406 663.757812 152.757812 664.5625 152.757812 665.558594 C 152.757812 666.554688 153.566406 667.359375 154.558594 667.359375 L 328.628906 667.359375 L 328.628906 712.1875 C 328.628906 712.476562 328.710938 712.738281 328.832031 712.980469 L 41.25 712.980469 C 40.257812 712.980469 39.449219 713.785156 39.449219 714.78125 C 39.449219 715.777344 40.257812 716.582031 41.25 716.582031 L 768.570312 716.582031 C 769.566406 716.582031 770.371094 715.777344 770.371094 714.78125 C 770.371094 713.785156 769.566406 712.980469 768.570312 712.980469 L 492.871094 712.980469 C 495.945312 704.226562 505.414062 677.148438 510.789062 660.589844 Z M 332.230469 712.1875 L 332.230469 667.359375 L 348.125 667.359375 L 348.125 712.1875 C 348.125 712.476562 348.207031 712.738281 348.324219 712.976562 L 332.027344 712.976562 C 332.148438 712.738281 332.230469 712.476562 332.230469 712.1875 Z M 333.886719 531.132812 C 334.226562 531.15625 334.539062 531.371094 334.667969 531.714844 L 357.71875 594.164062 C 360.695312 593.5 372.105469 590.863281 388.398438 586.007812 C 385.277344 556.472656 380.238281 526.847656 373.410156 497.945312 C 373.296875 497.460938 373.59375 496.976562 374.078125 496.859375 C 374.558594 496.734375 375.046875 497.046875 375.164062 497.527344 C 377.269531 506.445312 379.183594 515.4375 380.949219 524.46875 C 381.066406 525.0625 381.179688 525.65625 381.296875 526.25 C 382.320312 531.554688 383.296875 536.875 384.199219 542.207031 C 384.308594 542.84375 384.402344 543.480469 384.507812 544.117188 C 386.796875 557.867188 388.6875 571.683594 390.152344 585.480469 C 435.351562 571.859375 515.671875 541.789062 559.863281 490.316406 C 623.125 416.625 622.796875 386.949219 622.789062 386.65625 C 622.769531 386.160156 623.15625 385.742188 623.652344 385.71875 C 624.210938 385.71875 624.566406 386.085938 624.589844 386.582031 C 624.640625 387.789062 625.140625 417.042969 561.226562 491.488281 C 541.515625 514.453125 514.679688 533.171875 486.957031 548.09375 C 482.921875 550.265625 478.871094 552.355469 474.816406 554.367188 C 470.476562 556.523438 466.136719 558.589844 461.820312 560.5625 C 435.074219 572.800781 409.257812 581.621094 389.972656 587.410156 C 389.839844 587.527344 389.675781 587.621094 389.480469 587.640625 C 389.449219 587.644531 389.417969 587.644531 389.386719 587.644531 C 389.34375 587.644531 389.304688 587.628906 389.265625 587.621094 C 387.429688 588.171875 385.660156 588.6875 383.949219 589.183594 C 371.234375 592.851562 362.179688 594.996094 358.796875 595.765625 C 357.921875 595.960938 357.40625 596.074219 357.328125 596.089844 L 356.570312 596.25 L 341.449219 555.289062 L 335.554688 539.324219 L 332.976562 532.335938 C 332.804688 531.867188 333.042969 531.351562 333.511719 531.179688 C 333.632812 531.132812 333.761719 531.121094 333.886719 531.132812 Z M 318.539062 488.839844 C 318.765625 488.953125 318.949219 489.148438 319.015625 489.417969 C 319.066406 489.613281 319.03125 489.808594 318.957031 489.984375 C 318.847656 490.234375 318.644531 490.4375 318.359375 490.507812 L 312.0625 492.082031 L 307.542969 493.210938 L 307.097656 493.324219 L 306.089844 493.011719 L 292.117188 488.710938 L 291.953125 488.542969 C 283.628906 479.898438 274.335938 477.171875 274.242188 477.144531 C 273.820312 477.027344 273.574219 476.621094 273.609375 476.203125 C 273.617188 476.144531 273.609375 476.089844 273.625 476.03125 C 273.761719 475.550781 274.261719 475.273438 274.738281 475.414062 C 275.132812 475.527344 284.476562 478.273438 293.085938 487.125 L 307.144531 491.453125 L 317.921875 488.757812 C 318.136719 488.707031 318.351562 488.746094 318.539062 488.839844 Z M 300.191406 562.523438 C 300.183594 562.753906 300.191406 562.976562 300.183594 563.207031 C 300.167969 563.695312 299.769531 564.082031 299.28125 564.082031 C 299.273438 564.082031 299.265625 564.082031 299.253906 564.082031 C 299.039062 564.074219 298.851562 563.984375 298.703125 563.855469 C 298.503906 563.683594 298.371094 563.4375 298.382812 563.152344 C 299.414062 528.878906 278.457031 515.113281 278.246094 514.980469 C 277.824219 514.710938 277.703125 514.15625 277.96875 513.738281 C 278.238281 513.320312 278.796875 513.195312 279.210938 513.460938 C 279.433594 513.601562 300.949219 527.742188 300.191406 562.523438 Z M 526.410156 309.128906 C 526.914062 302.429688 527.671875 295.707031 528.753906 289.132812 C 540.84375 286.828125 549.941406 282.652344 556.730469 278.09375 L 557.15625 278.105469 C 556.957031 278.699219 550.832031 304.554688 526.410156 309.128906 Z M 521.324219 289.050781 C 521.324219 289.054688 521.328125 289.058594 521.328125 289.0625 C 521.289062 289.535156 520.894531 289.886719 520.429688 289.886719 C 520.402344 289.886719 520.378906 289.886719 520.355469 289.886719 C 507.902344 288.839844 496.035156 284.402344 487.804688 277.703125 C 479.316406 270.816406 473.722656 260.367188 471.171875 246.648438 C 470.15625 241.214844 469.585938 235.40625 469.480469 229.382812 C 469.46875 228.886719 469.867188 228.476562 470.363281 228.46875 C 470.367188 228.46875 470.375 228.472656 470.378906 228.472656 C 470.867188 228.460938 471.269531 228.863281 471.28125 229.355469 C 471.386719 235.277344 471.945312 240.984375 472.941406 246.320312 C 475.414062 259.609375 480.796875 269.695312 488.941406 276.308594 C 496.902344 282.785156 508.40625 287.078125 520.507812 288.09375 C 520.996094 288.132812 521.359375 288.5625 521.324219 289.050781 Z M 486.652344 207.25 C 486.628906 207.386719 486.582031 207.519531 486.496094 207.640625 C 486.324219 207.878906 486.046875 208.003906 485.769531 208.003906 C 485.578125 208.003906 485.382812 207.945312 485.21875 207.828125 C 485.167969 207.789062 485.03125 207.65625 484.878906 207.472656 C 484.621094 207.152344 484.308594 206.617188 484.226562 205.726562 C 483.953125 202.652344 486.667969 198.121094 492.300781 192.269531 C 502.867188 181.296875 500.140625 164.179688 500.113281 164.007812 C 500.03125 163.515625 500.363281 163.050781 500.851562 162.96875 C 501.339844 162.902344 501.804688 163.214844 501.890625 163.707031 C 502.011719 164.445312 504.804688 181.882812 493.597656 193.519531 C 486.902344 200.476562 485.96875 203.945312 486.007812 205.394531 C 486.027344 206.125 486.300781 206.386719 486.3125 206.394531 C 486.597656 206.601562 486.707031 206.929688 486.652344 207.25 Z M 550.753906 173.847656 C 550.511719 173.796875 550.253906 173.757812 549.855469 173.703125 C 546.214844 173.4375 543.386719 173.570312 540.6875 174.121094 C 540.597656 174.128906 540.507812 174.144531 540.429688 174.171875 C 537.769531 174.722656 535.039062 175.707031 531.574219 177.363281 C 530.730469 177.78125 529.382812 178.667969 527.875 179.785156 C 526.789062 180.585938 525.585938 181.511719 524.324219 182.523438 C 518.714844 186.933594 512.074219 192.617188 512.007812 192.671875 C 511.769531 192.878906 511.65625 193.199219 511.707031 193.511719 C 511.761719 193.824219 511.976562 194.085938 512.273438 194.199219 C 512.34375 194.226562 519.351562 196.890625 527.375 198.523438 C 527.699219 198.597656 528.042969 198.675781 528.347656 198.726562 C 529.6875 199.007812 531.03125 199.242188 532.34375 199.421875 C 535.023438 199.773438 537.234375 199.921875 539.246094 199.917969 C 540.359375 199.917969 541.578125 199.835938 542.863281 199.675781 C 545.199219 199.417969 547.773438 198.910156 550.503906 198.171875 C 551.527344 197.898438 552.570312 197.609375 553.589844 197.277344 C 566.53125 193.1875 578.96875 185.644531 579.09375 185.566406 C 579.332031 185.421875 579.488281 185.171875 579.515625 184.890625 C 579.546875 184.613281 579.445312 184.335938 579.242188 184.140625 C 578.9375 183.859375 571.542969 177.050781 550.753906 173.847656 Z M 538.820312 177.429688 C 531.507812 177.429688 525.582031 183.359375 525.582031 190.671875 C 525.582031 192.808594 526.109375 194.820312 527.019531 196.601562 C 521.5625 195.441406 516.6875 193.847656 514.363281 193.035156 C 516.519531 191.207031 521.269531 187.21875 525.441406 183.933594 C 526.691406 182.933594 527.871094 182.023438 528.945312 181.234375 C 530.351562 180.191406 531.636719 179.34375 532.363281 178.984375 C 535.71875 177.378906 538.347656 176.429688 540.886719 175.917969 C 540.902344 175.917969 540.914062 175.914062 540.925781 175.910156 C 540.945312 175.90625 540.960938 175.902344 540.980469 175.898438 C 543.53125 175.371094 546.230469 175.246094 549.746094 175.507812 C 549.953125 175.539062 550.167969 175.570312 550.421875 175.621094 C 566.539062 178.105469 574.449219 182.847656 577.023438 184.695312 C 573.707031 186.613281 563.53125 192.246094 553.039062 195.566406 C 552.304688 195.800781 551.566406 196.003906 550.828125 196.207031 C 551.617188 194.519531 552.070312 192.652344 552.070312 190.675781 C 552.074219 183.359375 546.132812 177.429688 538.820312 177.429688 Z M 476.328125 192.183594 L 476.910156 192.234375 C 477.777344 192.328125 478.679688 192.363281 479.601562 192.402344 C 479.84375 192.40625 480.089844 192.40625 480.332031 192.40625 C 486.511719 192.40625 492.613281 191.125 492.882812 191.066406 C 493.191406 191 493.445312 190.777344 493.546875 190.476562 C 493.648438 190.175781 493.585938 189.839844 493.378906 189.601562 C 493.324219 189.535156 487.894531 183.195312 484.59375 179.855469 C 483.601562 178.863281 482.917969 178.25 482.453125 177.933594 C 481.785156 177.472656 481.191406 177.078125 480.609375 176.730469 C 479.667969 176.160156 478.765625 175.699219 477.851562 175.308594 C 475.847656 174.453125 473.773438 173.984375 471.023438 173.734375 L 470.519531 173.734375 C 469.246094 173.734375 468.023438 173.773438 466.871094 173.828125 C 455.957031 174.375 451.464844 177.386719 451.28125 177.515625 C 451.046875 177.675781 450.902344 177.933594 450.890625 178.214844 C 450.878906 178.496094 450.996094 178.765625 451.210938 178.949219 C 451.261719 178.992188 456.4375 183.328125 462.742188 187.019531 L 463.503906 187.445312 C 464.414062 187.9375 465.324219 188.429688 466.246094 188.882812 C 469.253906 190.386719 471.980469 191.363281 474.390625 191.851562 C 474.699219 191.914062 475.019531 192 475.3125 192.042969 C 475.625 192.101562 475.933594 192.136719 476.328125 192.183594 Z M 470.523438 175.539062 L 470.945312 175.535156 C 474.609375 175.871094 476.894531 176.585938 479.683594 178.277344 C 480.242188 178.609375 480.800781 178.976562 481.4375 179.417969 C 481.800781 179.664062 482.4375 180.242188 483.320312 181.125 C 485.714844 183.546875 489.265625 187.597656 490.996094 189.589844 C 488.679688 189.992188 484.042969 190.667969 479.660156 190.601562 C 479.097656 190.578125 478.546875 190.535156 477.992188 190.5 C 479.542969 188.980469 480.503906 186.875 480.503906 184.53125 C 480.503906 179.863281 476.738281 176.097656 472.074219 176.097656 C 467.425781 176.097656 463.664062 179.863281 463.664062 184.53125 C 463.664062 184.863281 463.6875 185.183594 463.722656 185.503906 L 463.652344 185.464844 C 459.140625 182.820312 455.214844 179.835938 453.417969 178.414062 C 455.285156 177.546875 459.582031 175.996094 466.964844 175.628906 C 468.085938 175.574219 469.277344 175.539062 470.523438 175.539062 Z M 524.242188 155.617188 C 524.242188 155.617188 536.273438 156.410156 547.625 159.664062 C 558.980469 162.917969 569.507812 176.222656 558.050781 170.101562 C 546.597656 163.980469 532.441406 164.203125 529.195312 163.816406 C 525.945312 163.433594 520.359375 159.28125 524.242188 155.617188 Z M 479.949219 165.550781 C 475.542969 165.550781 470.058594 166.167969 464.980469 168.832031 C 455.46875 173.820312 464.992188 161.027344 474.132812 159.089844 C 476.628906 158.5625 479.136719 158.238281 481.472656 158.042969 C 481.949219 158.003906 482.414062 157.96875 482.871094 157.941406 C 482.4375 157.835938 482 157.726562 481.558594 157.609375 C 474.246094 155.628906 466.28125 151.460938 466.160156 144.082031 C 466.226562 148.085938 477.511719 144.734375 479.316406 144.238281 C 486.402344 142.285156 491.167969 140.417969 496.082031 134.613281 C 501.78125 127.878906 508.214844 121.359375 516.402344 118.0625 C 525.132812 114.546875 534.984375 115.058594 544.207031 116.941406 C 550.65625 118.253906 557.226562 120.328125 562.640625 124.1875 C 566.542969 126.96875 569.515625 130.773438 573.09375 133.921875 C 575.9375 136.417969 579.070312 138.625 582.375 140.460938 C 583.8125 141.261719 584.730469 141.472656 585.210938 142.542969 C 585.335938 142.820312 585.4375 143.144531 585.503906 143.566406 C 585.769531 145.277344 584.90625 147.121094 583.675781 148.273438 C 582.175781 149.675781 580.070312 150.300781 578.011719 150.335938 C 574.90625 150.386719 571.394531 148.972656 568.964844 147.070312 C 566.113281 144.847656 562.671875 142.566406 559.078125 145.039062 C 556.609375 146.734375 554.421875 148.964844 551.585938 149.917969 C 542.167969 153.085938 532.683594 140.730469 523.25 143.851562 C 518.074219 145.5625 515.460938 151.21875 511.351562 154.800781 C 506.476562 159.054688 499.96875 160.054688 493.359375 159.617188 C 494.121094 163.269531 490.234375 166.054688 488.011719 166.03125 C 486.816406 166.019531 483.792969 165.550781 479.949219 165.550781 Z M 85.058594 550.675781 C 84.066406 550.675781 83.257812 549.871094 83.257812 548.875 L 83.257812 462.714844 C 83.257812 461.71875 84.066406 460.914062 85.058594 460.914062 L 183.589844 460.914062 C 184.300781 460.914062 184.898438 461.332031 185.191406 461.929688 C 185.3125 462.167969 185.390625 462.429688 185.390625 462.714844 C 185.390625 463.710938 184.582031 464.515625 183.589844 464.515625 L 86.859375 464.515625 L 86.859375 548.875 C 86.859375 549.871094 86.054688 550.675781 85.058594 550.675781 Z M 111.976562 271.53125 L 292.542969 271.53125 C 293.535156 271.53125 294.34375 270.726562 294.34375 269.730469 L 294.34375 70.007812 C 294.34375 69.011719 293.535156 68.203125 292.542969 68.203125 L 111.976562 68.203125 C 110.980469 68.203125 110.175781 69.011719 110.175781 70.007812 L 110.175781 269.730469 C 110.175781 270.726562 110.980469 271.53125 111.976562 271.53125 Z M 113.777344 71.808594 L 290.742188 71.808594 L 290.742188 267.929688 L 113.777344 267.929688 Z M 113.777344 71.808594 " fill-opacity="1" fill-rule="nonzero"/><path fill="#ffffff" d="M 476.675781 143.878906 L 474.902344 143.566406 C 475.070312 142.605469 479.542969 119.859375 526.222656 107.863281 C 572.828125 95.890625 617.707031 140.90625 618.152344 141.359375 L 616.871094 142.625 C 616.429688 142.171875 572.273438 97.886719 526.671875 109.609375 C 481.246094 121.28125 476.714844 143.652344 476.675781 143.878906 Z M 306.089844 493.011719 L 292.117188 488.710938 L 291.953125 488.542969 C 283.628906 479.898438 274.335938 477.171875 274.242188 477.144531 C 273.820312 477.027344 273.574219 476.625 273.609375 476.203125 C 258.183594 469.886719 236.878906 464.976562 238.496094 477.414062 C 238.96875 481.035156 243.605469 483.453125 247.632812 484.191406 C 251.660156 484.921875 255.929688 484.824219 259.566406 486.824219 C 265.542969 490.109375 259.488281 495.644531 251.351562 500.621094 C 248.171875 502.5625 244.683594 504.421875 241.460938 506.027344 C 236.277344 508.605469 231.800781 510.539062 230.484375 511.121094 C 226.859375 512.726562 222.003906 514.074219 221.738281 518.867188 C 221.589844 521.554688 223.804688 523.914062 226.335938 524.832031 C 228.867188 525.746094 231.644531 525.546875 234.328125 525.332031 C 240.277344 524.863281 246.171875 524.097656 252.117188 523.601562 C 254.703125 523.386719 257.433594 523.070312 260.027344 523.339844 C 260.515625 523.390625 263.453125 524.78125 262.246094 524.78125 C 254.003906 533.1875 243.070312 540.136719 233.582031 547.519531 C 231.980469 548.765625 230.28125 550.359375 230.460938 552.324219 C 230.476562 552.503906 230.484375 552.679688 230.535156 552.863281 C 231.628906 556.976562 238.363281 556.519531 242.273438 554.828125 C 244.207031 553.996094 246.136719 553.160156 248.070312 552.324219 C 255.390625 549.160156 262.710938 545.996094 270.03125 542.832031 C 268.289062 546.398438 265.855469 549.492188 263.035156 552.324219 C 261.140625 554.230469 259.0625 556.011719 256.898438 557.730469 C 252.320312 561.367188 247.347656 564.726562 242.816406 568.367188 C 240.730469 570.042969 238.652344 571.902344 237.9375 574.414062 C 237.21875 576.925781 238.339844 580.253906 241.132812 581.585938 C 244.382812 583.136719 247.824219 581.386719 250.472656 579.675781 C 258.6875 574.371094 266.898438 569.0625 275.113281 563.757812 C 272.164062 568.285156 269.234375 572.875 267.046875 577.832031 C 265.632812 581.03125 262.414062 588.109375 265.398438 591.371094 C 266.128906 592.167969 267.242188 592.53125 268.324219 592.550781 C 271.089844 592.59375 273.820312 590.320312 276.015625 588.832031 C 276.351562 588.601562 276.683594 588.371094 277.007812 588.128906 C 285.019531 582.234375 289.582031 573.140625 296.433594 566.054688 C 297.160156 565.304688 297.925781 564.578125 298.703125 563.859375 C 298.503906 563.6875 298.371094 563.441406 298.382812 563.15625 C 299.414062 528.882812 278.457031 515.117188 278.246094 514.984375 C 277.824219 514.714844 277.703125 514.15625 277.96875 513.738281 C 278.238281 513.320312 278.796875 513.199219 279.210938 513.464844 C 279.433594 513.605469 300.949219 527.746094 300.191406 562.527344 C 302.109375 560.863281 304.15625 559.277344 306.269531 557.730469 C 308.671875 555.972656 311.160156 554.265625 313.652344 552.566406 C 318.769531 549.074219 323.898438 545.597656 328.316406 541.707031 C 328.140625 541.195312 327.96875 540.679688 327.792969 540.167969 C 324.683594 530.988281 321.574219 521.804688 318.464844 512.625 C 316.042969 505.46875 312.640625 497.363281 306.089844 493.011719 Z M 574.03125 259.480469 C 575.175781 259.941406 577.105469 260.496094 579.820312 260.496094 C 584.871094 260.496094 592.601562 258.578125 602.890625 250.570312 C 603.175781 250.351562 603.28125 250 603.210938 249.671875 C 602.789062 249.472656 602.351562 249.289062 601.933594 249.074219 C 601.886719 249.097656 601.832031 249.113281 601.785156 249.148438 C 585.910156 261.5 576.539062 258.625 574.3125 257.628906 C 565.132812 250.453125 562.289062 230.46875 561.585938 223.871094 C 566.347656 222.960938 575.671875 220.929688 585.675781 217.421875 C 585.714844 216.769531 585.769531 216.117188 585.828125 215.464844 C 575.78125 219.050781 566.285156 221.136719 561.414062 222.070312 C 561.394531 221.84375 561.386719 221.714844 561.386719 221.714844 C 561.386719 221.714844 502.90625 207.105469 489.558594 207.105469 C 488.574219 207.105469 487.609375 207.160156 486.648438 207.25 C 486.625 207.386719 486.582031 207.519531 486.496094 207.640625 C 486.320312 207.878906 486.046875 208.003906 485.765625 208.003906 C 485.578125 208.003906 485.382812 207.945312 485.21875 207.828125 C 485.164062 207.789062 485.027344 207.65625 484.878906 207.472656 C 479.570312 208.25 474.792969 210.1875 471.222656 212.023438 C 470.886719 215.105469 470.648438 218.191406 470.503906 221.277344 C 470.394531 223.675781 470.351562 226.078125 470.375 228.472656 C 470.867188 228.460938 471.265625 228.863281 471.277344 229.355469 C 471.382812 235.28125 471.941406 240.988281 472.9375 246.324219 C 475.410156 259.609375 480.792969 269.699219 488.9375 276.308594 C 496.898438 282.785156 508.402344 287.082031 520.503906 288.097656 C 520.992188 288.136719 521.355469 288.5625 521.324219 289.054688 C 523.847656 289.230469 526.339844 289.261719 528.75 289.136719 C 540.839844 286.832031 549.941406 282.65625 556.730469 278.097656 C 567.429688 270.910156 572.359375 262.78125 574.03125 259.480469 Z M 553.042969 195.5625 C 563.539062 192.246094 573.710938 186.609375 577.03125 184.695312 C 574.453125 182.84375 566.542969 178.105469 550.425781 175.617188 C 550.175781 175.566406 549.957031 175.539062 549.753906 175.507812 C 546.238281 175.246094 543.539062 175.371094 540.984375 175.898438 C 540.964844 175.902344 540.945312 175.90625 540.929688 175.90625 C 540.917969 175.910156 540.902344 175.914062 540.894531 175.917969 C 538.351562 176.429688 535.722656 177.378906 532.367188 178.980469 C 531.640625 179.34375 530.359375 180.1875 528.949219 181.234375 C 527.875 182.023438 526.695312 182.929688 525.445312 183.933594 C 521.273438 187.214844 516.527344 191.207031 514.367188 193.035156 C 516.695312 193.847656 521.570312 195.4375 527.023438 196.601562 C 526.117188 194.816406 525.585938 192.808594 525.585938 190.671875 C 525.585938 183.355469 531.511719 177.429688 538.824219 177.429688 C 546.136719 177.429688 552.082031 183.355469 552.082031 190.671875 C 552.082031 192.648438 551.628906 194.519531 550.835938 196.203125 C 551.570312 196 552.308594 195.800781 553.042969 195.5625 Z M 463.648438 185.464844 L 463.71875 185.503906 C 463.683594 185.183594 463.660156 184.859375 463.660156 184.53125 C 463.660156 179.863281 467.421875 176.097656 472.070312 176.097656 C 476.734375 176.097656 480.5 179.863281 480.5 184.53125 C 480.5 186.875 479.539062 188.980469 477.992188 190.5 C 478.542969 190.535156 479.09375 190.578125 479.65625 190.601562 C 484.039062 190.667969 488.675781 189.992188 490.992188 189.589844 C 489.261719 187.597656 485.710938 183.546875 483.316406 181.125 C 482.433594 180.242188 481.796875 179.664062 481.433594 179.417969 C 480.796875 178.976562 480.238281 178.609375 479.679688 178.277344 C 476.890625 176.585938 474.609375 175.867188 470.941406 175.535156 L 470.519531 175.539062 C 469.273438 175.539062 468.082031 175.574219 466.960938 175.628906 C 459.578125 176 455.277344 177.546875 453.414062 178.414062 C 455.214844 179.839844 459.136719 182.820312 463.648438 185.464844 Z M 65.710938 579.9375 L 51.15625 579.9375 L 51.15625 565.375 C 51.15625 563.796875 49.878906 562.519531 48.300781 562.519531 C 46.726562 562.519531 45.445312 563.800781 45.445312 565.375 L 45.445312 579.9375 L 30.890625 579.9375 C 29.3125 579.9375 28.035156 581.214844 28.035156 582.792969 C 28.035156 584.367188 29.316406 585.648438 30.890625 585.648438 L 45.445312 585.648438 L 45.445312 600.207031 C 45.445312 601.785156 46.726562 603.0625 48.300781 603.0625 C 49.878906 603.0625 51.15625 601.785156 51.15625 600.207031 L 51.15625 585.648438 L 65.710938 585.648438 C 67.289062 585.648438 68.566406 584.367188 68.566406 582.792969 C 68.566406 581.214844 67.289062 579.9375 65.710938 579.9375 Z M 337.910156 428.589844 L 352.46875 428.589844 L 352.46875 443.152344 C 352.46875 444.730469 353.746094 446.007812 355.324219 446.007812 C 356.898438 446.007812 358.175781 444.726562 358.175781 443.152344 L 358.175781 428.589844 L 372.734375 428.589844 C 374.3125 428.589844 375.589844 427.3125 375.589844 425.734375 C 375.589844 424.15625 374.308594 422.878906 372.734375 422.878906 L 358.175781 422.878906 L 358.175781 408.316406 C 358.175781 406.738281 356.898438 405.460938 355.324219 405.460938 C 353.746094 405.460938 352.46875 406.742188 352.46875 408.316406 L 352.46875 422.878906 L 337.910156 422.878906 C 336.332031 422.878906 335.058594 424.15625 335.058594 425.734375 C 335.058594 427.3125 336.332031 428.589844 337.910156 428.589844 Z M 431.214844 676.15625 L 416.660156 676.15625 L 416.660156 661.59375 C 416.660156 660.015625 415.382812 658.738281 413.804688 658.738281 C 412.230469 658.738281 410.949219 660.015625 410.949219 661.59375 L 410.949219 676.15625 L 396.394531 676.15625 C 394.816406 676.15625 393.539062 677.433594 393.539062 679.011719 C 393.539062 680.585938 394.820312 681.867188 396.394531 681.867188 L 410.949219 681.867188 L 410.949219 696.425781 C 410.949219 698.003906 412.230469 699.28125 413.804688 699.28125 C 415.382812 699.28125 416.660156 698.003906 416.660156 696.425781 L 416.660156 681.867188 L 431.214844 681.867188 C 432.792969 681.867188 434.070312 680.585938 434.070312 679.011719 C 434.070312 677.433594 432.792969 676.15625 431.214844 676.15625 Z M 86.957031 452.476562 L 86.957031 437.917969 L 101.511719 437.917969 C 103.089844 437.917969 104.367188 436.636719 104.367188 435.0625 C 104.367188 433.484375 103.089844 432.207031 101.511719 432.207031 L 86.957031 432.207031 L 86.957031 417.644531 C 86.957031 416.066406 85.675781 414.789062 84.101562 414.789062 C 82.523438 414.789062 81.246094 416.070312 81.246094 417.644531 L 81.246094 432.207031 L 66.691406 432.207031 C 65.113281 432.207031 63.835938 433.484375 63.835938 435.0625 C 63.835938 436.636719 65.113281 437.917969 66.691406 437.917969 L 81.246094 437.917969 L 81.246094 452.476562 C 81.246094 454.054688 82.527344 455.332031 84.101562 455.332031 C 85.675781 455.332031 86.957031 454.054688 86.957031 452.476562 Z M 634.785156 193.933594 C 639.542969 196.675781 642.9375 201.21875 644.34375 206.730469 C 647.152344 217.746094 640.917969 229.117188 630.441406 232.082031 C 628.746094 232.566406 627.015625 232.800781 625.300781 232.800781 C 622.03125 232.800781 618.792969 231.9375 615.859375 230.25 C 611.097656 227.507812 607.703125 222.964844 606.296875 217.453125 C 603.484375 206.4375 609.722656 195.066406 620.199219 192.101562 C 625.125 190.703125 630.304688 191.355469 634.785156 193.933594 Z M 633.882812 195.496094 C 631.226562 193.964844 628.296875 193.183594 625.339844 193.183594 C 623.785156 193.183594 622.222656 193.398438 620.6875 193.832031 C 611.144531 196.535156 605.472656 206.929688 608.042969 217.007812 C 609.324219 222.042969 612.421875 226.191406 616.753906 228.6875 C 620.808594 231.019531 625.496094 231.609375 629.953125 230.347656 C 639.492188 227.644531 645.167969 217.246094 642.597656 207.171875 C 641.3125 202.140625 638.21875 197.992188 633.882812 195.496094 Z M 381.453125 526.199219 C 381.609375 526.164062 381.824219 526.105469 382.152344 525.933594 C 425.796875 503 486.882812 465.496094 513.359375 404.917969 C 516.847656 396.9375 519.730469 388.558594 522.515625 380.457031 C 526.664062 368.394531 530.953125 355.921875 537.292969 344.675781 C 547.101562 327.289062 565.332031 309.492188 587.148438 311.726562 C 587.636719 311.765625 588.085938 311.417969 588.136719 310.921875 C 588.140625 310.867188 588.125 310.820312 588.121094 310.769531 C 588.09375 310.339844 587.773438 309.976562 587.332031 309.933594 C 580.789062 309.269531 574.5625 310.324219 568.777344 312.585938 C 554.511719 318.15625 542.902344 331.070312 535.726562 343.792969 C 529.308594 355.179688 524.988281 367.734375 520.816406 379.871094 C 518.039062 387.941406 515.167969 396.285156 511.710938 404.199219 C 485.460938 464.257812 424.71875 501.527344 381.3125 524.339844 C 381.175781 524.414062 381.121094 524.429688 381.015625 524.453125 C 380.996094 524.460938 380.972656 524.46875 380.953125 524.472656 C 381.066406 525.066406 381.183594 525.660156 381.296875 526.253906 C 381.34375 526.230469 381.390625 526.214844 381.453125 526.199219 Z M 599.367188 311.214844 C 589.375 314.042969 580.457031 324.828125 574.121094 332.511719 C 573.199219 333.632812 572.324219 334.691406 571.5 335.664062 C 561.875 347.023438 553.191406 361.019531 544.945312 378.445312 C 540.632812 387.558594 536.640625 397.023438 532.773438 406.179688 C 524.484375 425.824219 515.917969 446.132812 503.757812 463.964844 C 486.367188 489.46875 461.117188 510.105469 432.660156 522.066406 C 427.148438 524.382812 421.394531 526.441406 415.828125 528.425781 C 405.128906 532.25 394.085938 536.210938 384.199219 542.207031 C 384.308594 542.84375 384.402344 543.480469 384.507812 544.117188 C 394.394531 538 405.59375 533.992188 416.433594 530.121094 C 422.023438 528.128906 427.800781 526.0625 433.355469 523.726562 C 462.132812 511.632812 487.660156 490.765625 505.246094 464.976562 C 517.507812 447 526.113281 426.601562 534.433594 406.878906 C 538.289062 397.742188 542.277344 388.292969 546.574219 379.214844 C 554.75 361.933594 563.351562 348.066406 572.875 336.828125 C 573.703125 335.851562 574.582031 334.785156 575.511719 333.660156 C 583.207031 324.320312 594.835938 310.203125 606.933594 312.550781 C 607.132812 312.589844 607.324219 312.542969 607.5 312.457031 C 607.742188 312.335938 607.933594 312.125 607.988281 311.839844 C 608.082031 311.351562 607.761719 310.878906 607.277344 310.785156 C 606.632812 310.660156 606 310.609375 605.363281 310.5625 C 603.332031 310.417969 601.328125 310.660156 599.367188 311.214844 Z M 202.257812 179.53125 C 186.558594 179.53125 173.828125 166.796875 173.828125 151.089844 C 173.828125 135.386719 186.558594 122.652344 202.257812 122.652344 C 217.960938 122.652344 230.691406 135.386719 230.691406 151.089844 C 230.691406 166.800781 217.964844 179.53125 202.257812 179.53125 Z M 202.257812 155.980469 C 202.628906 155.980469 203 155.921875 203.359375 155.8125 L 222.519531 149.820312 C 224.464844 149.214844 225.546875 147.148438 224.9375 145.203125 C 224.332031 143.265625 222.273438 142.167969 220.324219 142.785156 L 205.941406 147.28125 L 205.941406 133.464844 C 205.941406 131.433594 204.292969 129.78125 202.257812 129.78125 C 200.222656 129.78125 198.574219 131.429688 198.574219 133.464844 L 198.574219 152.292969 C 198.574219 153.464844 199.128906 154.566406 200.074219 155.261719 C 200.71875 155.734375 201.484375 155.980469 202.257812 155.980469 Z M 202.257812 155.980469 " fill-opacity="1" fill-rule="nonzero"/><g clip-path="url(#id2)"><path fill="#ff914d" d="M 808.632812 754.878906 C 808.621094 754.878906 1.019531 754.878906 0.820312 754.878906 C 0.820312 754.878906 0.820312 705.996094 0.820312 665.558594 L 152.757812 665.558594 C 152.757812 666.554688 153.566406 667.359375 154.558594 667.359375 L 328.628906 667.359375 L 328.628906 712.1875 C 328.628906 712.476562 328.710938 712.734375 328.832031 712.976562 L 41.25 712.976562 C 40.257812 712.976562 39.449219 713.78125 39.449219 714.78125 C 39.449219 715.777344 40.257812 716.582031 41.25 716.582031 L 768.570312 716.582031 C 769.566406 716.582031 770.371094 715.777344 770.371094 714.78125 C 770.371094 713.78125 769.566406 712.976562 768.570312 712.976562 L 729.71875 712.976562 C 745.628906 685.421875 740.988281 645.875 737.144531 625.929688 C 738.550781 624.949219 739.804688 623.800781 740.777344 622.363281 C 743.546875 618.273438 743.503906 612.957031 743.238281 608.027344 C 741.125 568.515625 727.765625 534.894531 719.398438 497.640625 C 713.28125 470.40625 709.082031 443.597656 699.429688 417.175781 C 693.566406 401.121094 685.910156 383.816406 676.128906 367.914062 C 683.546875 368.859375 690.984375 370.695312 698.398438 373.609375 C 744.285156 391.636719 776.265625 410.941406 797.980469 457.355469 C 801.121094 464.070312 803.625 471.191406 805.238281 478.472656 C 808.140625 491.5625 808.164062 505.160156 803.839844 517.769531 C 798.105469 534.472656 785.273438 548.25 780.878906 565.355469 C 770.71875 604.90625 803.089844 620.070312 808.285156 654.222656 C 809.515625 662.292969 808.824219 754.878906 808.632812 754.878906 Z M 85.058594 640.121094 L 0.820312 640.121094 C 0.820312 625.65625 0.820312 615.121094 0.820312 613.066406 C 0.820312 545.679688 4.539062 404.003906 77.28125 384.753906 C 150.023438 365.503906 162.9375 420.878906 197.105469 430.265625 C 221.125 436.859375 246.929688 430.613281 269.71875 420.554688 C 292.511719 410.5 313.535156 396.707031 336.523438 387.113281 C 370.484375 372.9375 394.195312 370.21875 422.652344 396.867188 C 430.289062 404.019531 437.320312 411.851562 444.835938 419.117188 C 411.78125 444.691406 368.324219 464.039062 341.449219 474.605469 L 341.449219 461.929688 L 185.195312 461.929688 C 184.902344 461.335938 184.300781 460.914062 183.589844 460.914062 L 85.058594 460.914062 C 84.066406 460.914062 83.257812 461.71875 83.257812 462.714844 L 83.257812 548.878906 C 83.257812 549.875 84.066406 550.679688 85.058594 550.679688 Z M 335.054688 425.734375 C 335.054688 427.3125 336.332031 428.589844 337.910156 428.589844 L 352.464844 428.589844 L 352.464844 443.152344 C 352.464844 444.730469 353.746094 446.007812 355.320312 446.007812 C 356.898438 446.007812 358.175781 444.726562 358.175781 443.152344 L 358.175781 428.589844 L 372.730469 428.589844 C 374.308594 428.589844 375.585938 427.3125 375.585938 425.734375 C 375.585938 424.15625 374.308594 422.878906 372.730469 422.878906 L 358.175781 422.878906 L 358.175781 408.316406 C 358.175781 406.738281 356.898438 405.460938 355.320312 405.460938 C 353.746094 405.460938 352.464844 406.742188 352.464844 408.316406 L 352.464844 422.878906 L 337.910156 422.878906 C 336.332031 422.878906 335.054688 424.15625 335.054688 425.734375 Z M 68.570312 582.792969 C 68.570312 581.214844 67.289062 579.9375 65.714844 579.9375 L 51.160156 579.9375 L 51.160156 565.375 C 51.160156 563.796875 49.878906 562.519531 48.304688 562.519531 C 46.726562 562.519531 45.449219 563.800781 45.449219 565.375 L 45.449219 579.9375 L 30.890625 579.9375 C 29.316406 579.9375 28.039062 581.214844 28.039062 582.792969 C 28.039062 584.367188 29.316406 585.648438 30.890625 585.648438 L 45.449219 585.648438 L 45.449219 600.207031 C 45.449219 601.785156 46.726562 603.0625 48.304688 603.0625 C 49.878906 603.0625 51.160156 601.785156 51.160156 600.207031 L 51.160156 585.648438 L 65.714844 585.648438 C 67.289062 585.648438 68.570312 584.371094 68.570312 582.792969 Z M 84.101562 455.332031 C 85.675781 455.332031 86.953125 454.054688 86.953125 452.476562 L 86.953125 437.917969 L 101.511719 437.917969 C 103.089844 437.917969 104.367188 436.636719 104.367188 435.0625 C 104.367188 433.484375 103.085938 432.207031 101.511719 432.207031 L 86.953125 432.207031 L 86.953125 417.644531 C 86.953125 416.066406 85.675781 414.789062 84.101562 414.789062 C 82.523438 414.789062 81.246094 416.070312 81.246094 417.644531 L 81.246094 432.207031 L 66.6875 432.207031 C 65.109375 432.207031 63.835938 433.484375 63.835938 435.0625 C 63.835938 436.636719 65.113281 437.917969 66.6875 437.917969 L 81.246094 437.917969 L 81.246094 452.476562 C 81.246094 454.054688 82.523438 455.332031 84.101562 455.332031 Z M 474.816406 554.371094 C 478.871094 552.359375 482.921875 550.269531 486.957031 548.097656 C 485.144531 551.09375 485.242188 556.554688 484.734375 559.8125 C 483.882812 565.246094 483.101562 570.6875 482.394531 576.144531 C 480.167969 593.285156 477.574219 610.199219 477.269531 627.433594 C 477.222656 630.121094 475.734375 658.597656 478.992188 658.855469 C 482.554688 659.136719 486.121094 659.351562 489.6875 659.574219 L 481.433594 712.980469 L 351.523438 712.980469 C 351.644531 712.738281 351.722656 712.476562 351.722656 712.1875 L 351.722656 667.359375 L 377.46875 667.359375 C 378.460938 667.359375 379.269531 666.554688 379.269531 665.558594 L 379.269531 639.488281 C 379.269531 638.492188 378.460938 637.6875 377.46875 637.6875 L 341.445312 637.6875 L 341.445312 555.289062 L 356.566406 596.253906 L 357.328125 596.09375 C 357.40625 596.074219 357.921875 595.964844 358.796875 595.765625 C 362.515625 595.785156 372.074219 593.089844 383.949219 589.183594 C 385.65625 588.691406 387.425781 588.175781 389.261719 587.625 C 389.304688 587.628906 389.34375 587.648438 389.386719 587.648438 C 389.417969 587.648438 389.449219 587.644531 389.480469 587.640625 C 389.675781 587.621094 389.835938 587.53125 389.972656 587.410156 C 409.257812 581.621094 435.070312 572.804688 461.816406 560.566406 C 466.28125 558.769531 470.585938 556.648438 474.816406 554.371094 Z M 434.070312 679.011719 C 434.070312 677.433594 432.792969 676.15625 431.214844 676.15625 L 416.660156 676.15625 L 416.660156 661.59375 C 416.660156 660.015625 415.382812 658.738281 413.804688 658.738281 C 412.230469 658.738281 410.949219 660.015625 410.949219 661.59375 L 410.949219 676.15625 L 396.394531 676.15625 C 394.816406 676.15625 393.539062 677.433594 393.539062 679.011719 C 393.539062 680.585938 394.820312 681.867188 396.394531 681.867188 L 410.949219 681.867188 L 410.949219 696.425781 C 410.949219 698.003906 412.230469 699.28125 413.804688 699.28125 C 415.382812 699.28125 416.660156 698.003906 416.660156 696.425781 L 416.660156 681.867188 L 431.214844 681.867188 C 432.792969 681.867188 434.070312 680.589844 434.070312 679.011719 Z M 348.125 712.1875 L 348.125 667.359375 L 332.230469 667.359375 L 332.230469 712.1875 C 332.230469 712.476562 332.148438 712.738281 332.027344 712.976562 L 348.324219 712.976562 C 348.203125 712.738281 348.125 712.476562 348.125 712.1875 Z M 248.070312 552.320312 C 246.136719 553.15625 244.203125 553.992188 242.273438 554.824219 C 238.363281 556.515625 231.628906 556.972656 230.535156 552.859375 C 230.484375 552.675781 230.476562 552.5 230.460938 552.320312 L 124.84375 552.320312 L 124.84375 506.023438 L 241.457031 506.023438 C 244.679688 504.417969 248.171875 502.558594 251.347656 500.617188 L 119.4375 500.617188 L 119.4375 557.726562 L 256.898438 557.726562 C 259.0625 556.007812 261.136719 554.226562 263.035156 552.320312 Z M 313.652344 557.726562 L 313.652344 552.5625 C 311.160156 554.265625 308.671875 555.96875 306.269531 557.726562 Z M 318.359375 490.507812 L 312.0625 492.082031 C 310.023438 492.785156 308.597656 493.273438 308.222656 493.398438 L 307.542969 493.210938 L 307.097656 493.324219 L 306.089844 493.011719 C 312.644531 497.363281 316.042969 505.46875 318.464844 512.621094 C 321.574219 521.804688 324.683594 530.984375 327.792969 540.164062 L 335.554688 539.324219 L 332.976562 532.335938 C 332.800781 531.867188 333.042969 531.351562 333.507812 531.179688 C 333.632812 531.132812 333.761719 531.117188 333.886719 531.128906 C 327.761719 514.25 322.015625 498.414062 318.957031 489.980469 C 318.847656 490.234375 318.640625 490.4375 318.359375 490.507812 Z M 587.332031 309.933594 C 587.773438 309.976562 588.089844 310.339844 588.121094 310.769531 C 589.042969 310.753906 589.960938 310.742188 590.867188 310.742188 C 593.765625 310.742188 596.589844 310.929688 599.367188 311.214844 C 601.328125 310.660156 603.332031 310.417969 605.363281 310.5625 C 604.226562 300.585938 602.207031 281.484375 601.996094 279.183594 C 601.363281 272.273438 601.023438 266.964844 601.386719 261.710938 C 601.648438 257.90625 602.285156 254.117188 603.453125 249.785156 C 603.371094 249.75 603.292969 249.710938 603.214844 249.671875 C 603.28125 250 603.175781 250.351562 602.894531 250.570312 C 592.605469 258.578125 584.871094 260.496094 579.824219 260.496094 C 577.109375 260.496094 575.175781 259.941406 574.03125 259.480469 C 572.363281 262.777344 567.429688 270.910156 556.734375 278.09375 L 557.15625 278.105469 C 556.957031 278.699219 550.835938 304.554688 526.414062 309.128906 C 526.105469 313.128906 525.890625 317.128906 525.765625 321.09375 C 525.722656 322.175781 525.523438 326.914062 525.363281 330.714844 C 540.335938 320.226562 555.148438 314.992188 568.777344 312.585938 C 574.5625 310.324219 580.785156 309.269531 587.332031 309.933594 Z M 585.832031 215.460938 C 575.78125 219.046875 566.289062 221.132812 561.414062 222.066406 C 561.398438 221.839844 561.386719 221.714844 561.386719 221.714844 C 561.386719 221.714844 502.90625 207.101562 489.5625 207.101562 C 488.578125 207.101562 487.609375 207.160156 486.652344 207.25 C 486.707031 206.929688 486.597656 206.597656 486.316406 206.394531 C 486.300781 206.382812 486.03125 206.125 486.011719 205.390625 C 485.972656 203.945312 486.902344 200.476562 493.601562 193.519531 C 504.808594 181.882812 502.015625 164.441406 501.890625 163.707031 C 501.808594 163.214844 501.339844 162.898438 500.855469 162.96875 C 500.367188 163.050781 500.035156 163.515625 500.117188 164.003906 C 500.144531 164.175781 502.867188 181.296875 492.304688 192.269531 C 486.667969 198.121094 483.953125 202.648438 484.230469 205.726562 C 484.308594 206.617188 484.621094 207.152344 484.882812 207.46875 C 479.578125 208.25 474.796875 210.1875 471.230469 212.019531 C 471.964844 205.257812 473.097656 198.542969 474.398438 191.851562 C 474.703125 191.914062 475.023438 192 475.320312 192.042969 C 475.628906 192.097656 475.9375 192.136719 476.332031 192.179688 L 476.914062 192.234375 C 477.78125 192.324219 478.683594 192.363281 479.605469 192.402344 C 479.847656 192.40625 480.09375 192.40625 480.332031 192.40625 C 486.515625 192.40625 492.617188 191.121094 492.886719 191.066406 C 493.195312 191 493.449219 190.773438 493.550781 190.472656 C 493.652344 190.171875 493.585938 189.839844 493.378906 189.597656 C 493.328125 189.535156 487.898438 183.191406 484.597656 179.855469 C 483.605469 178.859375 482.921875 178.246094 482.457031 177.933594 C 481.789062 177.46875 481.195312 177.078125 480.609375 176.730469 C 479.671875 176.160156 478.769531 175.699219 477.855469 175.308594 C 478.5625 172.054688 479.265625 168.800781 479.949219 165.546875 C 483.792969 165.546875 486.816406 166.015625 488.007812 166.027344 C 490.234375 166.050781 494.121094 163.265625 493.355469 159.613281 C 499.96875 160.054688 506.472656 159.050781 511.351562 154.796875 C 515.460938 151.214844 518.070312 145.5625 523.246094 143.847656 C 532.683594 140.726562 542.164062 153.082031 551.582031 149.914062 C 554.421875 148.960938 556.609375 146.730469 559.074219 145.035156 C 562.671875 142.566406 566.113281 144.84375 568.960938 147.070312 C 571.390625 148.964844 574.902344 150.382812 578.011719 150.332031 C 580.066406 150.296875 582.171875 149.671875 583.675781 148.269531 C 584.90625 147.117188 585.769531 145.273438 585.503906 143.5625 C 585.4375 143.140625 585.335938 142.820312 585.207031 142.539062 C 590.050781 145.257812 594.15625 148.382812 597.597656 151.855469 C 598.972656 163.042969 596.105469 174.601562 592.890625 185.554688 C 590.355469 194.191406 586.824219 204.988281 585.832031 215.460938 Z M 529.195312 163.816406 C 532.441406 164.203125 546.597656 163.980469 558.054688 170.101562 C 569.507812 176.222656 558.980469 162.914062 547.628906 159.664062 C 536.273438 156.410156 524.242188 155.617188 524.242188 155.617188 C 520.359375 159.28125 525.949219 163.433594 529.195312 163.816406 Z M 579.519531 184.894531 C 579.550781 184.617188 579.445312 184.339844 579.242188 184.144531 C 578.9375 183.859375 571.542969 177.050781 550.753906 173.847656 C 550.511719 173.796875 550.253906 173.757812 549.855469 173.703125 C 546.214844 173.4375 543.386719 173.570312 540.6875 174.121094 C 540.597656 174.128906 540.507812 174.144531 540.429688 174.171875 C 537.769531 174.722656 535.039062 175.707031 531.574219 177.363281 C 530.730469 177.78125 529.382812 178.667969 527.875 179.785156 C 526.789062 180.585938 525.585938 181.511719 524.324219 182.523438 C 518.714844 186.933594 512.074219 192.617188 512.007812 192.671875 C 511.769531 192.878906 511.65625 193.199219 511.707031 193.511719 C 511.761719 193.824219 511.976562 194.085938 512.273438 194.199219 C 512.34375 194.226562 519.351562 196.890625 527.375 198.523438 C 527.699219 198.597656 528.042969 198.675781 528.347656 198.726562 C 529.6875 199.007812 531.03125 199.242188 532.34375 199.421875 C 535.023438 199.773438 537.234375 199.921875 539.246094 199.917969 C 540.359375 199.917969 541.578125 199.835938 542.863281 199.675781 C 545.199219 199.417969 547.773438 198.910156 550.503906 198.171875 C 551.527344 197.898438 552.570312 197.609375 553.589844 197.277344 C 566.53125 193.1875 578.96875 185.644531 579.09375 185.566406 C 579.332031 185.421875 579.492188 185.175781 579.519531 184.894531 Z M 585.660156 224.050781 C 585.511719 221.878906 585.535156 219.65625 585.675781 217.417969 C 575.675781 220.925781 566.351562 222.957031 561.585938 223.871094 C 562.289062 230.46875 565.136719 250.453125 574.3125 257.628906 C 576.539062 258.621094 585.914062 261.496094 601.789062 249.148438 C 601.832031 249.109375 601.886719 249.097656 601.9375 249.070312 C 598.804688 247.429688 595.914062 245.355469 593.433594 242.8125 C 588.339844 237.601562 586.148438 231.070312 585.660156 224.050781 Z M 481.558594 157.609375 C 481.53125 157.753906 481.503906 157.898438 481.472656 158.046875 C 481.949219 158.007812 482.414062 157.96875 482.871094 157.941406 C 482.4375 157.839844 482 157.730469 481.558594 157.609375 Z M 232.425781 409.550781 C 234.003906 409.550781 235.277344 408.269531 235.277344 406.695312 L 235.277344 392.132812 L 249.835938 392.132812 C 251.414062 392.132812 252.691406 390.855469 252.691406 389.277344 C 252.691406 387.703125 251.410156 386.421875 249.835938 386.421875 L 235.277344 386.421875 L 235.277344 371.863281 C 235.277344 370.285156 234 369.007812 232.425781 369.007812 C 230.847656 369.007812 229.570312 370.285156 229.570312 371.863281 L 229.570312 386.421875 L 215.011719 386.421875 C 213.433594 386.421875 212.160156 387.703125 212.160156 389.277344 C 212.160156 390.855469 213.4375 392.132812 215.011719 392.132812 L 229.570312 392.132812 L 229.570312 406.695312 C 229.570312 408.273438 230.847656 409.550781 232.425781 409.550781 Z M 29.761719 368.03125 L 37.535156 368.03125 L 37.535156 375.808594 C 37.535156 376.652344 38.21875 377.335938 39.058594 377.335938 C 39.902344 377.335938 40.585938 376.652344 40.585938 375.808594 L 40.585938 368.03125 L 48.359375 368.03125 C 49.203125 368.03125 49.886719 367.347656 49.886719 366.507812 C 49.886719 365.664062 49.203125 364.980469 48.359375 364.980469 L 40.585938 364.980469 L 40.585938 357.203125 C 40.585938 356.359375 39.902344 355.679688 39.058594 355.679688 C 38.21875 355.679688 37.535156 356.359375 37.535156 357.203125 L 37.535156 364.980469 L 29.761719 364.980469 C 28.917969 364.980469 28.234375 365.664062 28.234375 366.507812 C 28.234375 367.347656 28.917969 368.03125 29.761719 368.03125 Z M 202.257812 241.226562 C 202.257812 241.226562 150.640625 178.664062 150.640625 150.144531 C 150.640625 121.628906 173.75 98.507812 202.257812 98.507812 C 230.769531 98.507812 253.878906 121.628906 253.878906 150.144531 C 253.882812 178.664062 202.257812 241.226562 202.257812 241.226562 Z M 202.257812 179.53125 C 217.960938 179.53125 230.691406 166.796875 230.691406 151.089844 C 230.691406 135.386719 217.960938 122.652344 202.257812 122.652344 C 186.558594 122.652344 173.828125 135.386719 173.828125 151.089844 C 173.828125 166.800781 186.558594 179.53125 202.257812 179.53125 Z M 222.523438 149.820312 C 224.464844 149.214844 225.546875 147.148438 224.941406 145.203125 C 224.335938 143.265625 222.273438 142.167969 220.324219 142.785156 L 205.945312 147.28125 L 205.945312 133.464844 C 205.945312 131.433594 204.296875 129.78125 202.257812 129.78125 C 200.226562 129.78125 198.574219 131.429688 198.574219 133.464844 L 198.574219 152.292969 C 198.574219 153.464844 199.132812 154.566406 200.078125 155.261719 C 200.71875 155.734375 201.484375 155.976562 202.257812 155.976562 C 202.628906 155.976562 203 155.921875 203.359375 155.808594 Z M 222.523438 149.820312 " fill-opacity="1" fill-rule="nonzero"/></g></svg>